<svg xmlns="http://www.w3.org/2000/svg" xmlns:xlink="http://www.w3.org/1999/xlink" version="1.1" x="0px" y="0px" viewBox="0 0 325.5 263.75" enable-background="new 0 0 325.5 211" xml:space="preserve"><circle fill="none" stroke="#000000" stroke-width="10" cx="264.833" cy="150.333" r="55.667"/><path fill="none" stroke="#000000" stroke-width="2" stroke-linecap="round" d="M199.636,150.333  c0-36.008,29.19-65.197,65.197-65.197"/><circle fill="none" stroke="#000000" stroke-width="10" cx="67.833" cy="150.333" r="55.667"/><path fill="none" stroke="#000000" stroke-width="2" stroke-linecap="round" d="M2.636,150.333  c0-36.008,29.189-65.196,65.197-65.196c36.007,0,65.196,29.188,65.196,65.196"/><polyline fill="none" stroke="#000000" stroke-width="10" stroke-linecap="round" points="182.834,5 205.834,5 267.834,152.333 "/><line fill="none" stroke="#000000" stroke-width="10" stroke-linecap="round" x1="113.834" y1="42" x2="62.834" y2="157.333"/><line fill="none" stroke="#000000" stroke-width="10" stroke-linecap="round" x1="132.834" y1="38" x2="92.834" y2="38"/><polyline fill="none" stroke="#000000" stroke-width="10" points="229.5,64.667 161.833,151.668 106.834,64.334 "/><line fill="none" stroke="#000000" stroke-width="10" x1="227.167" y1="58.668" x2="109" y2="58.667"/><path d="M66.753,150.553c-7.64,2.162-8.586,6.373-8.586,8.448c0,2.089,1.014,6.315,8.741,8.491  c24.281,6.838,83.361,10.176,89.925,10.176c8.653,0,17.667-10.014,17.667-18.667c0-8.652-9.014-18.666-17.667-18.666  C150.256,140.335,90.971,143.7,66.753,150.553z"/><polyline fill="none" stroke="#000000" stroke-width="6" stroke-linecap="round" points="32.501,78.667 87.501,78.667   94.834,89.334 "/><polyline fill="none" stroke="#000000" stroke-width="6" stroke-linecap="round" points="238,49.167 238,56.667 232,56.667 "/><polyline fill="none" stroke="#000000" stroke-width="4" stroke-linecap="round" points="2,127.167 2,132.667 4,132.667 "/><text x="0" y="226" fill="#000000" font-size="5px" font-weight="bold" font-family="'Helvetica Neue', Helvetica, Arial-Unicode, Arial, Sans-serif">Created by 8ties®</text><text x="0" y="231" fill="#000000" font-size="5px" font-weight="bold" font-family="'Helvetica Neue', Helvetica, Arial-Unicode, Arial, Sans-serif">from the Noun Project</text></svg>