<svg xmlns="http://www.w3.org/2000/svg" xmlns:xlink="http://www.w3.org/1999/xlink" version="1.1" x="0px" y="0px" viewBox="0 0 100 125" enable-background="new 0 0 100 100" xml:space="preserve"><g><path fill="none" d="M48.28,51.083c0.499-0.117,1.017-0.185,1.551-0.185c0.951,0,1.856,0.197,2.679,0.551l8.516-15.951H38.929   L48.28,51.083z"/><path fill="none" d="M33.018,41.366c5.069,3.148,8.55,8.594,8.982,14.879h1.182c0.263-1.196,0.844-2.272,1.646-3.142l-9.565-15.941   L33.018,41.366z"/><path fill="none" d="M42.526,57.151h0.741c0.267-1.06,0.787-2.05,1.514-2.882l-9.116-15.193l-1.9,3.56   C38.79,45.842,42.047,51.238,42.526,57.151z"/><path fill="none" d="M31.671,46.557l-4.425,8.288c0.683,0.631,1.191,1.422,1.481,2.305h9.353   C37.626,52.827,35.306,48.992,31.671,46.557z"/><path fill="none" d="M50.021,56.316c-1.394,0-2.527,1.134-2.527,2.527s1.134,2.527,2.527,2.527c1.393,0,2.526-1.134,2.526-2.527   S51.413,56.316,50.021,56.316z"/><path fill="none" d="M23.558,64.306c-3.013,0-5.463-2.451-5.463-5.463c0-2.756,2.129-5.104,4.872-5.405l4.684-8.773   c-1.327-0.389-2.703-0.585-4.092-0.585c-8.058,0-14.613,6.555-14.613,14.613S15.5,73.305,23.558,73.305   c6.966,0,12.938-4.91,14.311-11.716h-9.617C27.266,63.269,25.481,64.306,23.558,64.306z"/><path fill="none" d="M48.612,52.027c0.477-0.099,0.95-0.15,1.409-0.15c0.872,0,1.721,0.16,2.529,0.477l8.1-15.174H39.703   L48.612,52.027z"/><circle fill="none" cx="23.558" cy="58.842" r="1.025"/><path fill="none" d="M76.442,44.154c-0.947,0-1.915,0.099-2.882,0.295l3.511,8.917c2.766,0.319,4.834,2.615,4.834,5.401   c0,3.013-2.45,5.463-5.463,5.463s-5.464-2.451-5.464-5.463c0-1.546,0.672-3.017,1.849-4.063l-3.435-8.727   c-4.673,2.584-7.565,7.459-7.565,12.79c0,8.058,6.556,14.613,14.614,14.613s14.613-6.555,14.613-14.613S84.5,44.154,76.442,44.154z   "/><circle fill="none" cx="76.441" cy="58.767" r="1.025"/><path d="M76.442,40.209c-1.503,0-3.054,0.203-4.611,0.604l-0.211,0.054l-5.155-13.094c-0.986-2.509-3.265-4.248-5.947-4.537   l-5.196-0.562l-0.371,3.432l5.196,0.562c1.399,0.151,2.589,1.059,3.104,2.369l1.654,4.199H36.762l-2.54-4.232h3.214v-3.452H24.37   v3.452h5.827l3.372,5.621l-3.568,6.684l-0.2-0.072c-2.041-0.732-4.142-1.104-6.243-1.104C13.326,40.134,5,48.459,5,58.692   S13.326,77.25,23.558,77.25c9.17,0,17.059-6.854,18.352-15.943l0.03-0.212h2.016l0.062,0.155c0.994,2.469,3.351,4.064,6.003,4.064   c3.568,0,6.471-2.903,6.471-6.472c0-1.198-0.338-2.375-0.978-3.403l-0.075-0.121l0.066-0.126L65.892,35.74l2.493,6.331   l-0.202,0.101c-6.353,3.176-10.299,9.535-10.299,16.595c0,10.233,8.326,18.558,18.559,18.558C86.674,77.325,95,69,95,58.767   S86.674,40.209,76.442,40.209z M38.41,61.386c-1.302,7.192-7.548,12.412-14.852,12.412c-8.329,0-15.106-6.777-15.106-15.107   c0-8.329,6.777-15.106,15.106-15.106c1.539,0,3.062,0.234,4.526,0.694l0.283,0.089l-5.091,9.535l-0.133,0.011   c-2.554,0.216-4.555,2.38-4.555,4.927c0,2.741,2.23,4.97,4.97,4.97c1.791,0,3.453-0.992,4.334-2.589l0.07-0.128h10.5L38.41,61.386z    M25.076,58.842c0,0.837-0.681,1.518-1.518,1.518s-1.518-0.681-1.518-1.518s0.681-1.518,1.518-1.518S25.076,58.005,25.076,58.842z    M28.36,57.644l-0.052-0.178c-0.27-0.927-0.799-1.749-1.532-2.379l-0.149-0.129l4.862-9.109l0.225,0.145   c3.968,2.558,6.477,6.706,6.884,11.38l0.023,0.268H28.36z M45.268,54.465c-0.779,0.845-1.32,1.877-1.564,2.985l-0.042,0.194h-1.594   l-0.015-0.23c-0.407-5.921-3.675-11.335-8.743-14.482l-0.196-0.122l2.527-4.734l9.753,16.254L45.268,54.465z M50.021,61.862   c-1.665,0-3.02-1.355-3.02-3.02s1.355-3.02,3.02-3.02c1.665,0,3.019,1.355,3.019,3.02S51.686,61.862,50.021,61.862z M52.773,52.983   l-0.208-0.09c-1.246-0.534-2.596-0.679-4.018-0.347l-0.174,0.041l-0.093-0.155l-9.447-15.745h22.64L52.773,52.983z M76.442,73.873   c-8.33,0-15.107-6.777-15.107-15.106c0-5.606,3.092-10.724,8.069-13.357l0.244-0.129l3.768,9.571l-0.137,0.114   c-1.149,0.958-1.808,2.343-1.808,3.801c0,2.741,2.23,4.97,4.971,4.97c2.74,0,4.97-2.23,4.97-4.97c0-2.58-1.95-4.697-4.536-4.926   l-0.152-0.013l-3.834-9.738l0.282-0.063c1.096-0.243,2.196-0.366,3.271-0.366c8.329,0,15.106,6.777,15.106,15.107   C91.548,67.097,84.771,73.873,76.442,73.873z M74.923,58.767c0-0.837,0.681-1.518,1.519-1.518c0.837,0,1.518,0.681,1.518,1.518   s-0.681,1.518-1.518,1.518C75.604,60.286,74.923,59.605,74.923,58.767z"/></g><text x="0" y="115" fill="#000000" font-size="5px" font-weight="bold" font-family="'Helvetica Neue', Helvetica, Arial-Unicode, Arial, Sans-serif">Created by Oksana Latysheva</text><text x="0" y="120" fill="#000000" font-size="5px" font-weight="bold" font-family="'Helvetica Neue', Helvetica, Arial-Unicode, Arial, Sans-serif">from the Noun Project</text></svg>