<?xml version="1.0" encoding="utf-8"?>
<!-- Generator: Adobe Illustrator 18.1.0, SVG Export Plug-In . SVG Version: 6.00 Build 0)  -->
<svg version="1.1" id="Layer_1" xmlns="http://www.w3.org/2000/svg" xmlns:xlink="http://www.w3.org/1999/xlink" x="0px" y="0px"
	 viewBox="-379.5 354.1 353.8 61.8" enable-background="new -379.5 354.1 353.8 61.8" xml:space="preserve">
<title>BlaBlaCar</title>
<path fill="#00A87E" d="M-322.8,392.9c0.2,2.1,0,4.1-0.6,5.8c-0.6,1.7-1.6,3.2-2.9,4.4c-1.5,1.4-3.2,2.6-5.1,3.3
	c-1.8,0.7-4.3,1.2-7.3,1.6l-17.2,1.8l-4.5-43.2l15.2-1.6c3.2-0.3,5.6-0.5,7.2-0.4c1.6,0.1,3.3,0.4,4.7,1c1.6,0.7,2.9,1.6,3.8,3
	c0.9,1.3,1.4,2.9,1.6,4.7c0.2,2.1-0.1,4.1-1,5.8c-0.9,1.7-2.2,3.2-4,4.1v0.2c2.8,0.3,5,1.2,6.7,2.8
	C-324.2,387.7-323.1,389.9-322.8,392.9 M-338.5,376.5c-0.1-0.7-0.3-1.4-0.8-2c-0.4-0.7-1-1.1-1.8-1.4c-0.7-0.2-1.6-0.3-2.5-0.2
	c-1,0.1-2.5,0.2-4.4,0.4l-0.7,0.1l0.9,9.1l1.3-0.1c1.8-0.2,3.2-0.3,3.9-0.5c0.7-0.1,1.5-0.4,2.2-0.8c0.8-0.5,1.3-1.1,1.6-1.8
	C-338.5,378.4-338.4,377.6-338.5,376.5 M-334,393.8c-0.1-1.3-0.5-2.3-1.1-3.1c-0.6-0.7-1.5-1.2-2.7-1.4c-0.7-0.2-1.6-0.2-2.8-0.1
	c-1.1,0.1-2.7,0.2-4.6,0.4l-2,0.2l1.1,10.8l0.6-0.1c2.9-0.3,4.8-0.5,5.8-0.7c1.1-0.2,2.1-0.5,3.3-1.1c0.9-0.5,1.6-1.2,1.9-2.1
	C-334,395.8-333.9,394.8-334,393.8 M-321.6,361.6l9.8-1l4.6,43.9l-9.8,1L-321.6,361.6z M-282.4,398.6c-0.6,0.6-1.2,1.2-1.6,1.7
	c-0.5,0.5-1.1,1-2,1.6c-0.8,0.5-1.6,0.9-2.5,1.2c-0.8,0.3-1.9,0.5-3.5,0.7c-2.8,0.3-5.2-0.4-7.2-2c-2-1.7-3.3-4-3.6-6.8
	c-0.2-2.3,0-4.3,0.8-5.8c0.8-1.5,2-2.9,3.7-3.9c1.7-1,3.8-1.8,6.2-2.4c2.5-0.6,5.1-1.1,8-1.6V381c-0.2-1.7-0.9-2.9-2.3-3.5
	c-1.3-0.5-3.4-0.6-5.9-0.4c-1.1,0.1-2.6,0.5-4,1c-1.5,0.6-3,1.3-4.4,2.1l-0.8,0.1l-0.8-7.7c0.9-0.4,2.4-0.9,4.6-1.5
	c2.1-0.6,4.3-1,6.5-1.2c5.5-0.6,9.5-0.1,12.2,1.4c2.7,1.5,4.2,4.2,4.6,8l2.2,21.5l-9.8,1L-282.4,398.6L-282.4,398.6z M-282.9,393.7
	l-0.7-6.6c-1.6,0.3-3,0.6-4,0.8c-1,0.2-2,0.6-3,1c-0.8,0.4-1.4,0.9-1.8,1.5c-0.4,0.7-0.6,1.5-0.5,2.6c0.1,1.5,0.6,2.4,1.5,3
	c0.9,0.5,2,0.6,3.7,0.4c0.8-0.1,1.7-0.4,2.5-0.9C-284.4,395.1-283.7,394.5-282.9,393.7L-282.9,393.7z"/>
<path fill="#0086BF" d="M-221.5,392.9c0.2,2.1,0,4.1-0.6,5.8c-0.6,1.7-1.6,3.2-2.9,4.4c-1.5,1.4-3.2,2.6-5.1,3.3
	c-1.8,0.7-4.3,1.2-7.3,1.6l-17.2,1.8l-4.5-43.2l15.2-1.6c3.2-0.3,5.6-0.5,7.2-0.4c1.6,0.1,3.3,0.4,4.7,1c1.6,0.7,2.9,1.6,3.8,3
	c0.9,1.3,1.4,2.9,1.6,4.7c0.2,2.1-0.1,4.1-1,5.8c-0.9,1.7-2.2,3.2-4,4.1v0.2c2.8,0.3,5,1.2,6.7,2.8
	C-222.9,387.7-221.8,389.9-221.5,392.9 M-237.3,376.5c-0.1-0.7-0.3-1.4-0.8-2c-0.4-0.7-1-1.1-1.8-1.4c-0.7-0.2-1.6-0.3-2.6-0.2
	c-1,0.1-2.4,0.2-4.4,0.4l-0.7,0.1l0.9,9.1l1.3-0.1c1.8-0.2,3.2-0.3,3.9-0.5c0.7-0.1,1.5-0.4,2.2-0.8c0.8-0.5,1.3-1.1,1.6-1.8
	C-237.2,378.4-237.2,377.6-237.3,376.5 M-232.7,393.8c-0.1-1.3-0.5-2.3-1.1-3.1c-0.6-0.7-1.5-1.2-2.7-1.4c-0.7-0.2-1.6-0.2-2.8-0.1
	c-1.1,0.1-2.7,0.2-4.6,0.4l-2,0.2l1.1,10.8l0.6-0.1c2.9-0.3,4.8-0.5,5.8-0.6c1.1-0.2,2.1-0.5,3.3-1.1c0.9-0.5,1.6-1.2,1.9-2.1
	C-232.7,395.8-232.6,394.9-232.7,393.8 M-220.4,361.7l9.8-1l4.6,43.9l-9.8,1L-220.4,361.7z M-181.2,398.6c-0.6,0.6-1.2,1.2-1.6,1.7
	c-0.5,0.5-1.1,1-2,1.6c-0.8,0.5-1.6,0.9-2.4,1.2c-0.8,0.3-1.9,0.5-3.5,0.7c-2.8,0.3-5.2-0.4-7.2-2c-2-1.7-3.3-4-3.5-6.8
	c-0.2-2.3,0-4.3,0.8-5.8s2-2.9,3.7-3.9c1.7-1,3.8-1.8,6.2-2.4c2.4-0.6,5.1-1.1,8-1.6V381c-0.2-1.7-0.9-2.9-2.3-3.5
	c-1.3-0.5-3.4-0.7-5.9-0.4c-1.1,0.1-2.6,0.5-4,1c-1.5,0.6-3,1.3-4.4,2.1l-0.8,0.1l-0.8-7.7c0.9-0.4,2.4-0.9,4.6-1.5
	c2.1-0.6,4.3-1,6.5-1.2c5.4-0.6,9.5-0.1,12.2,1.4c2.7,1.5,4.2,4.2,4.6,8l2.2,21.5l-9.8,1L-181.2,398.6z M-181.7,393.7l-0.7-6.6
	c-1.6,0.3-3,0.6-4,0.8c-1,0.2-2,0.6-3,1c-0.8,0.4-1.4,0.9-1.8,1.5c-0.4,0.7-0.6,1.5-0.5,2.6c0.1,1.5,0.7,2.4,1.5,3
	c0.9,0.5,2,0.6,3.7,0.4c0.8-0.1,1.7-0.4,2.6-0.8C-183.1,395.1-182.3,394.5-181.7,393.7L-181.7,393.7z"/>
<text transform="matrix(1 1.276262e-03 -1.276262e-03 1 -162.2135 408.7946)" fill="#F53F5B" font-family="'Tahoma-Bold'" font-size="60.3721" letter-spacing="-1">Bike</text>
</svg>
