<svg xmlns="http://www.w3.org/2000/svg" xmlns:xlink="http://www.w3.org/1999/xlink" version="1.1" x="0px" y="0px" viewBox="0 0 100 125" enable-background="new 0 0 100 100" xml:space="preserve"><g><g><path d="M26.18,55.881c-0.113-0.477,0.076-0.974,0.476-1.257l9.238-6.531c-2.098-2.359-5.146-3.856-8.545-3.856    c-6.312,0-11.447,5.135-11.447,11.447S21.038,67.13,27.35,67.13c5.335,0,9.816-3.673,11.079-8.62l-11.26-1.717    C26.684,56.718,26.293,56.358,26.18,55.881z"/><path d="M39.263,48.654c1.223,2.064,1.937,4.462,1.937,7.029c0,0.274-0.025,0.542-0.041,0.812l1.212,0.185    c0.309-0.673,0.809-1.235,1.433-1.624l-2.482-7.858L39.263,48.654z"/><path d="M30.477,54.865l8.298,1.266c0.006-0.15,0.023-0.297,0.023-0.448c0-2.051-0.55-3.974-1.498-5.641L30.477,54.865z"/><path d="M50,5C25.19,5,5,25.19,5,50s20.19,45,45,45s45-20.19,45-45S74.81,5,50,5z M72.65,70.852c-7.637,0-13.85-6.213-13.85-13.85    c0-5.396,3.108-10.069,7.622-12.354l-1.093-2.736L49.203,56.718c0.207,0.465,0.326,0.976,0.326,1.516    c0,2.02-1.608,3.661-3.609,3.738l-0.792,2.662c-0.155,0.522-0.633,0.859-1.151,0.859c-0.113,0-0.229-0.016-0.343-0.05    c-0.636-0.189-0.998-0.858-0.809-1.494l0.791-2.657c-0.74-0.524-1.279-1.307-1.489-2.218l-1.312-0.2    c-1.447,6.101-6.927,10.659-13.465,10.659c-7.637,0-13.85-6.213-13.85-13.85c0-7.637,6.213-13.85,13.85-13.85    c4.208,0,7.976,1.893,10.519,4.864l2.693-1.904l-4.183-13.241h-3.011c-0.664,0-1.202-0.538-1.202-1.202    c0-0.664,0.538-1.202,1.202-1.202h10.165c0.664,0,1.202,0.538,1.202,1.202c0,0.664-0.538,1.202-1.202,1.202h-4.634l2.893,9.157    l4.333,0.401l17.982-2.258l-2.484-6.22c-0.02-0.049-0.03-0.099-0.043-0.149c-0.003-0.012-0.011-0.021-0.014-0.034    c-0.002-0.009-0.001-0.017-0.003-0.026c-0.009-0.043-0.011-0.085-0.015-0.127c-0.003-0.037-0.009-0.075-0.009-0.112    c0-0.039,0.005-0.078,0.009-0.117c0.004-0.039,0.006-0.079,0.014-0.117c0.007-0.036,0.019-0.07,0.03-0.105    c0.012-0.039,0.022-0.078,0.037-0.116c0.014-0.034,0.033-0.066,0.05-0.099c0.018-0.035,0.035-0.071,0.057-0.104    c0.021-0.032,0.046-0.06,0.07-0.09c0.024-0.03,0.047-0.062,0.075-0.09c0.026-0.026,0.055-0.049,0.084-0.073    c0.031-0.027,0.062-0.055,0.096-0.078c0.028-0.019,0.06-0.035,0.09-0.052c0.04-0.022,0.079-0.045,0.122-0.063    c0.008-0.003,0.014-0.008,0.021-0.011c0.029-0.012,0.059-0.016,0.089-0.026c0.031-0.01,0.061-0.024,0.094-0.031l8.195-1.836    c0.003-0.001,0.006,0,0.01-0.001c0.044-0.009,0.09-0.012,0.136-0.016c0.035-0.003,0.07-0.01,0.104-0.01    c0.004,0,0.009-0.001,0.013-0.001c2.557,0,4.638,2.081,4.638,4.638s-2.081,4.638-4.638,4.638c-0.664,0-1.202-0.538-1.202-1.202    s0.538-1.202,1.202-1.202c1.232,0,2.234-1.002,2.234-2.234c0-1.201-0.954-2.176-2.142-2.225l-6.647,1.489l4.273,10.697    c1.268-0.383,2.61-0.594,4.001-0.594c7.637,0,13.85,6.213,13.85,13.85C86.5,64.639,80.287,70.852,72.65,70.852z"/><polygon points="42.794,43.214 42.577,43.194 42.622,43.336   "/><path d="M72.65,45.555c-1.076,0-2.115,0.16-3.103,0.439l4.219,10.563c0.246,0.616-0.054,1.315-0.67,1.562    c-0.146,0.058-0.297,0.086-0.445,0.086c-0.477,0-0.929-0.286-1.116-0.757l-4.22-10.565c-3.63,1.922-6.111,5.734-6.111,10.119    c0,6.312,5.135,11.447,11.447,11.447s11.447-5.135,11.447-11.447S78.962,45.555,72.65,45.555z"/><path d="M43.382,45.742l2.502,7.921l0.544-1.828c0.189-0.636,0.859-0.997,1.494-0.809c0.636,0.189,0.998,0.858,0.809,1.494    l-0.56,1.882l14.041-12.891l-15.62,1.961L43.382,45.742z"/><path d="M46.765,57.325c-0.002-0.003-0.003-0.006-0.005-0.008c-0.246-0.264-0.595-0.432-0.983-0.432    c-0.744,0-1.35,0.606-1.35,1.349c0,0.744,0.606,1.349,1.35,1.349c0.744,0,1.349-0.605,1.349-1.349c0-0.35-0.137-0.666-0.356-0.906    C46.768,57.327,46.766,57.326,46.765,57.325z"/></g></g><text x="0" y="115" fill="#000000" font-size="5px" font-weight="bold" font-family="'Helvetica Neue', Helvetica, Arial-Unicode, Arial, Sans-serif">Created by Maxim Kulikov</text><text x="0" y="120" fill="#000000" font-size="5px" font-weight="bold" font-family="'Helvetica Neue', Helvetica, Arial-Unicode, Arial, Sans-serif">from the Noun Project</text></svg>