<svg xmlns="http://www.w3.org/2000/svg" xmlns:xlink="http://www.w3.org/1999/xlink" viewBox="0 0 100 125" version="1.1" xml:space="preserve" style="" x="0px" y="0px" fill-rule="evenodd" clip-rule="evenodd" stroke-linejoin="round" stroke-miterlimit="1.41421"><g transform="matrix(1,0,0,1,-111,-330)"><g transform="matrix(0.510204,-6.12068e-17,-1.19965e-16,0.510204,-30.3265,278.469)"><g transform="matrix(1.69615,2.0348e-16,3.9882e-16,1.69615,-2457.58,-392.957)"><path d="M1618,347.988L1618,339C1618.01,338.915 1618.01,338.829 1618.02,338.745C1618.06,338.406 1618.19,338.08 1618.4,337.806C1618.53,337.623 1618.58,337.591 1618.75,337.438L1668.75,297.438C1668.82,297.387 1668.89,297.331 1668.97,297.284C1669.13,297.192 1669.29,297.12 1669.47,297.072C1669.7,297.008 1669.76,297.016 1670,297C1670.09,297.006 1670.18,297.012 1670.27,297.018C1670.5,297.066 1670.57,297.067 1670.79,297.162C1671.01,297.256 1671.05,297.302 1671.25,297.438L1721.25,337.438C1721.42,337.591 1721.47,337.623 1721.6,337.806C1721.81,338.08 1721.94,338.406 1721.98,338.745C1722,338.829 1722,338.915 1722,339L1722,399C1722,399.007 1722,399.013 1722,399.02C1722,399.077 1722,399.133 1721.99,399.19C1721.99,399.218 1721.99,399.245 1721.98,399.272C1721.96,399.459 1721.9,399.642 1721.83,399.814C1721.81,399.85 1721.79,399.885 1721.78,399.92C1721.77,399.937 1721.76,399.954 1721.75,399.971L1721.75,399.973L1721.75,399.974L1721.75,399.977L1721.74,399.98L1721.74,399.984L1721.74,399.987L1721.74,399.988L1721.74,399.989C1721.73,400.006 1721.72,400.023 1721.71,400.039C1721.61,400.195 1721.5,400.337 1721.37,400.462C1721.34,400.484 1721.32,400.506 1721.29,400.527L1721.29,400.527L1721.29,400.527C1721.29,400.532 1721.28,400.537 1721.27,400.543L1721.27,400.543L1721.27,400.544L1721.27,400.546L1721.26,400.551L1721.26,400.551L1721.26,400.551C1721.16,400.638 1721.04,400.713 1720.92,400.776C1720.85,400.812 1720.78,400.845 1720.7,400.872L1720.7,400.873L1720.7,400.874L1720.7,400.874L1720.7,400.874C1720.56,400.925 1720.42,400.961 1720.27,400.981C1720.25,400.985 1720.22,400.988 1720.19,400.99C1720.13,400.995 1720.08,400.998 1720.02,400.999C1720.01,400.999 1720.01,401 1720,401L1620,401L1619.99,400.999C1619.91,400.999 1619.84,400.994 1619.76,400.985C1619.67,400.977 1619.6,400.964 1619.46,400.926C1619.32,400.886 1619.18,400.831 1619.05,400.762L1619.05,400.762L1619.05,400.761L1619.05,400.76L1619.05,400.759C1618.98,400.722 1618.91,400.68 1618.85,400.634C1618.74,400.555 1618.63,400.465 1618.54,400.365L1618.54,400.365L1618.54,400.365L1618.53,400.359L1618.53,400.357L1618.53,400.356L1618.53,400.355C1618.52,400.349 1618.52,400.343 1618.51,400.337L1618.51,400.337L1618.51,400.337C1618.49,400.312 1618.47,400.287 1618.45,400.262C1618.41,400.215 1618.37,400.166 1618.34,400.115L1618.34,400.115L1618.34,400.114L1618.34,400.111L1618.33,400.107C1618.24,399.971 1618.17,399.824 1618.12,399.67C1618.1,399.617 1618.08,399.564 1618.07,399.51C1618.05,399.432 1618.03,399.352 1618.02,399.272C1618.02,399.251 1618.01,399.23 1618.01,399.208C1618.01,399.145 1618,399.082 1618,399.019C1618,399.013 1618,399.006 1618,399L1618,348.012C1618,348.004 1618,347.996 1618,347.988ZM1622,348.961L1622,397L1638,397L1638,353C1638,352.93 1638,352.86 1638.01,352.791C1638.03,352.652 1638.06,352.515 1638.1,352.382C1638.29,351.778 1638.78,351.294 1639.38,351.098C1639.52,351.055 1639.65,351.026 1639.79,351.011C1639.86,351.004 1639.93,351.004 1640,351L1700,351C1700.07,351.004 1700.14,351.007 1700.21,351.011C1700.28,351.022 1700.35,351.029 1700.42,351.044C1700.55,351.073 1700.69,351.116 1700.81,351.173C1701.33,351.402 1701.73,351.847 1701.9,352.382C1701.94,352.515 1701.97,352.652 1701.99,352.791C1702,352.86 1702,352.93 1702,353L1702,397L1718,397L1718,348.732C1717.99,348.728 1717.99,348.724 1717.98,348.72C1717.9,348.673 1717.83,348.617 1717.75,348.565L1670,310.559L1622,348.961ZM1642,393L1642,397L1698,397L1698,393L1642,393ZM1642,387L1642,391L1698,391L1698,387L1642,387ZM1642,381L1642,385L1698,385L1698,381L1642,381ZM1642,375L1642,379L1698,379L1698,375L1642,375ZM1642,369L1642,373L1698,373L1698,369L1642,369ZM1698,367L1698,355L1642,355L1642,367L1698,367ZM1656.08,359.002C1656.16,359.006 1656.24,359.013 1656.32,359.025C1656.55,359.063 1656.78,359.143 1656.99,359.261C1657.17,359.366 1657.34,359.501 1657.48,359.658C1657.61,359.795 1657.71,359.95 1657.79,360.117C1658.03,360.596 1658.06,361.16 1657.89,361.663C1657.81,361.888 1657.69,362.099 1657.54,362.282C1657.37,362.486 1657.15,362.655 1656.92,362.777C1656.66,362.912 1656.37,362.981 1656.08,362.998C1653.39,363.052 1650.69,363 1648,363C1647.71,362.994 1647.42,362.937 1647.15,362.812C1646.91,362.699 1646.69,362.539 1646.52,362.342C1646.36,362.165 1646.23,361.96 1646.14,361.738C1645.93,361.217 1645.96,360.62 1646.21,360.117C1646.29,359.95 1646.39,359.795 1646.52,359.658C1646.66,359.501 1646.83,359.366 1647.01,359.261C1647.22,359.143 1647.45,359.063 1647.68,359.025C1647.76,359.013 1647.84,359.006 1647.92,359.002C1650.64,358.948 1653.36,358.948 1656.08,359.002ZM1674.08,359.002C1674.16,359.006 1674.24,359.013 1674.32,359.025C1674.55,359.063 1674.78,359.143 1674.99,359.261C1675.17,359.366 1675.34,359.501 1675.48,359.658C1675.61,359.795 1675.71,359.95 1675.79,360.117C1676.03,360.596 1676.06,361.16 1675.89,361.663C1675.81,361.888 1675.69,362.099 1675.54,362.282C1675.37,362.486 1675.15,362.655 1674.92,362.777C1674.66,362.912 1674.37,362.981 1674.08,362.998C1671.39,363.052 1668.69,363 1666,363C1665.71,362.994 1665.42,362.937 1665.15,362.812C1664.91,362.699 1664.69,362.539 1664.52,362.342C1664.36,362.165 1664.23,361.96 1664.14,361.738C1663.93,361.217 1663.96,360.62 1664.21,360.117C1664.29,359.95 1664.39,359.795 1664.52,359.658C1664.66,359.501 1664.83,359.366 1665.01,359.261C1665.22,359.143 1665.45,359.063 1665.68,359.025C1665.76,359.013 1665.84,359.006 1665.92,359.002C1668.64,358.948 1671.36,358.948 1674.08,359.002ZM1692.08,359.002C1692.16,359.006 1692.24,359.013 1692.32,359.025C1692.55,359.063 1692.78,359.143 1692.99,359.261C1693.17,359.366 1693.34,359.501 1693.48,359.658C1693.84,360.053 1694.03,360.587 1694,361.119C1693.99,361.305 1693.95,361.488 1693.89,361.663C1693.81,361.888 1693.69,362.099 1693.54,362.282C1693.37,362.486 1693.15,362.655 1692.92,362.777C1692.66,362.912 1692.37,362.981 1692.08,362.998C1689.39,363.052 1686.69,363 1684,363C1683.71,362.994 1683.42,362.937 1683.15,362.812C1682.91,362.699 1682.69,362.539 1682.52,362.342C1682.36,362.165 1682.23,361.96 1682.14,361.738C1682.06,361.541 1682.02,361.331 1682,361.119C1681.99,360.934 1682.01,360.747 1682.05,360.566C1682.17,360.019 1682.52,359.539 1683.01,359.261C1683.22,359.143 1683.45,359.063 1683.68,359.025C1683.76,359.013 1683.84,359.006 1683.92,359.002C1686.64,358.948 1689.36,358.948 1692.08,359.002ZM1667.99,331.013C1667,331.006 1666,331 1665,331C1664.91,330.998 1664.82,330.994 1664.74,330.982C1664.53,330.955 1664.33,330.896 1664.14,330.807C1663.9,330.694 1663.69,330.532 1663.51,330.334C1663.35,330.158 1663.23,329.954 1663.14,329.735C1662.93,329.209 1662.96,328.609 1663.21,328.104C1663.29,327.946 1663.39,327.798 1663.51,327.666C1663.65,327.512 1663.81,327.38 1663.99,327.275C1664.19,327.156 1664.41,327.073 1664.65,327.031C1664.74,327.016 1664.82,327.008 1664.91,327.002C1668.3,326.927 1671.7,326.927 1675.09,327.002C1675.18,327.008 1675.27,327.016 1675.35,327.031C1675.56,327.068 1675.75,327.136 1675.93,327.232C1676.17,327.357 1676.38,327.528 1676.55,327.733C1676.7,327.916 1676.81,328.125 1676.89,328.348C1677.07,328.854 1677.03,329.418 1676.79,329.896C1676.71,330.054 1676.61,330.202 1676.49,330.334C1676.35,330.488 1676.19,330.62 1676.01,330.725C1675.81,330.844 1675.59,330.927 1675.35,330.969C1675.27,330.984 1675.18,330.992 1675.09,330.998C1674.07,331.021 1673.04,331.03 1672.02,331.031C1672.02,332.09 1672.01,333.148 1672.01,334.206C1672.38,334.29 1672.74,334.398 1673.09,334.528C1674.39,335.001 1675.56,335.776 1676.51,336.772C1677.39,337.69 1678.07,338.793 1678.49,339.99C1678.74,340.695 1678.9,341.432 1678.97,342.177C1678.99,342.442 1679,342.708 1679,342.975C1679,343.018 1679,343.061 1679,343.105C1678.99,343.197 1678.99,343.221 1678.98,343.313C1678.95,343.485 1678.9,343.654 1678.83,343.813C1678.6,344.327 1678.15,344.728 1677.62,344.902C1677.42,344.968 1677.21,344.994 1677,345L1663,345C1662.91,344.998 1662.88,344.999 1662.79,344.989C1662.62,344.971 1662.45,344.93 1662.28,344.867C1661.79,344.678 1661.39,344.295 1661.17,343.813C1661.1,343.654 1661.05,343.485 1661.03,343.313C1661,343.126 1661,342.937 1661,342.748C1661.01,342.557 1661.02,342.367 1661.04,342.177C1661.12,341.249 1661.35,340.335 1661.71,339.477C1662.16,338.411 1662.82,337.436 1663.64,336.618C1664.59,335.669 1665.75,334.937 1667.01,334.491C1667.33,334.378 1667.65,334.284 1667.98,334.209C1667.98,333.144 1667.99,332.079 1667.99,331.013ZM1718,343.648L1718,339.961L1670,301.561L1622,339.961L1622,343.839L1668.75,306.438C1668.82,306.387 1668.89,306.331 1668.97,306.285C1669.13,306.192 1669.29,306.121 1669.47,306.073C1669.7,306.009 1669.76,306.016 1670,306C1670.09,306.006 1670.18,306.012 1670.27,306.018C1670.5,306.065 1670.56,306.066 1670.78,306.16C1671.01,306.254 1671.05,306.299 1671.25,306.435L1718,343.648ZM1670.23,337.987C1670.13,337.998 1670.03,338.002 1669.92,337.999C1669.87,337.997 1669.82,337.993 1669.77,337.987C1669.35,338.008 1668.92,338.078 1668.51,338.205C1667.53,338.511 1666.65,339.127 1666.03,339.944C1665.78,340.264 1665.58,340.612 1665.42,340.981L1665.41,341L1674.59,341C1674.56,340.92 1674.52,340.84 1674.48,340.762C1674.32,340.438 1674.12,340.132 1673.9,339.849C1673.26,339.064 1672.39,338.476 1671.43,338.188C1671.04,338.071 1670.63,338.007 1670.23,337.987Z" style="" fill="black"/></g></g></g><text x="0" y="115" fill="#000000" font-size="5px" font-weight="bold" font-family="'Helvetica Neue', Helvetica, Arial-Unicode, Arial, Sans-serif">Created by Nick Dominguez</text><text x="0" y="120" fill="#000000" font-size="5px" font-weight="bold" font-family="'Helvetica Neue', Helvetica, Arial-Unicode, Arial, Sans-serif">from the Noun Project</text></svg>