<svg xmlns="http://www.w3.org/2000/svg" xmlns:xlink="http://www.w3.org/1999/xlink" version="1.1" x="0px" y="0px" viewBox="0 0 100 125" enable-background="new 0 0 100 100" xml:space="preserve"><g display="none"><rect x="-1141.88" y="24.936" display="inline" fill="#000000" width="1198.44" height="485.976"/></g><g><g><path d="M50,5C25.147,5,5,25.147,5,50c0,24.853,20.147,45,45,45c24.853,0,45-20.147,45-45C95,25.147,74.853,5,50,5z     M73.129,72.827c-8.318,0-15.085-6.767-15.085-15.084c0-5.497,2.965-10.504,7.77-13.176l-2.361-5.427l-7.926,14.995    c0.808,1.153,1.233,2.495,1.233,3.902c0,3.769-3.066,6.834-6.834,6.834c-3.152,0-5.877-2.156-6.628-5.184l-1.419-0.027    c-0.681,7.752-7.182,13.756-15.008,13.756c-8.317,0-15.084-6.767-15.084-15.085c0-8.317,6.767-15.084,15.084-15.084    c1.785,0,3.542,0.317,5.229,0.944l4.191-7.229l-1.565-2.732h-2.772c-1.007,0-1.826-0.819-1.826-1.826s0.819-1.825,1.826-1.825    h8.839c1.007,0,1.826,0.818,1.826,1.825s-0.819,1.826-1.826,1.826h-1.857l0.777,1.356h22.196l-1.496-3.438    c-0.398-0.914-1.263-1.526-2.257-1.599l-4.962-0.359l0.264-3.643l4.963,0.359c2.353,0.171,4.399,1.621,5.341,3.785l5.434,12.492    c1.287-0.35,2.608-0.526,3.935-0.526c8.317,0,15.084,6.767,15.084,15.085C88.214,66.061,81.447,72.827,73.129,72.827z"/><path d="M43.4,56.031c0.372-1.203,1.077-2.29,2.027-3.124L38.39,40.624l-3.044,5.252c3.46,2.357,5.772,6.004,6.416,10.12    L43.4,56.031z"/><path d="M49.927,54.855c-1.755,0-3.183,1.428-3.183,3.184c0,1.755,1.428,3.183,3.183,3.183c1.755,0,3.183-1.428,3.183-3.183    C53.109,56.282,51.682,54.855,49.927,54.855z"/><path d="M49.927,51.203c0.933,0,1.863,0.195,2.72,0.568l6.625-12.532H41.805l6.919,12.075    C49.129,51.24,49.533,51.203,49.927,51.203z"/><circle cx="26.871" cy="58.332" r="0.679"/><path d="M31.033,59.495c-0.516,1.859-2.204,3.168-4.162,3.168c-0.525,0-1.054-0.103-1.571-0.305l-0.491-0.24    c-1.407-0.778-2.268-2.226-2.268-3.786c0-2.215,1.669-4.048,3.849-4.289l3.841-6.625c-1.104-0.345-2.231-0.519-3.36-0.519    c-6.304,0-11.433,5.129-11.433,11.433c0,6.305,5.129,11.434,11.433,11.434c5.828,0,10.715-4.427,11.349-10.172    C35.539,59.548,33.033,59.513,31.033,59.495z"/><path d="M73.129,46.311c-0.808,0-1.631,0.093-2.454,0.277l2.99,6.873c2.151,0.267,3.794,2.09,3.794,4.282    c0,2.388-1.942,4.33-4.33,4.33c-2.388,0-4.33-1.942-4.33-4.33c0-1.198,0.498-2.324,1.378-3.145l-2.901-6.67    c-3.456,2.065-5.58,5.777-5.58,9.814c0,6.304,5.129,11.433,11.433,11.433s11.433-5.129,11.433-11.433S79.434,46.311,73.129,46.311    z"/><circle cx="73.129" cy="57.743" r="0.679"/><path d="M30.388,55.829c1.794,0.002,4.24,0.031,7.645,0.093c-0.597-2.765-2.213-5.226-4.523-6.881l-3.608,6.224    C30.082,55.441,30.245,55.629,30.388,55.829z"/></g></g><text x="0" y="115" fill="#000000" font-size="5px" font-weight="bold" font-family="'Helvetica Neue', Helvetica, Arial-Unicode, Arial, Sans-serif">Created by Oksana Latysheva</text><text x="0" y="120" fill="#000000" font-size="5px" font-weight="bold" font-family="'Helvetica Neue', Helvetica, Arial-Unicode, Arial, Sans-serif">from the Noun Project</text></svg>