<svg xmlns="http://www.w3.org/2000/svg" xmlns:xlink="http://www.w3.org/1999/xlink" version="1.1" x="0px" y="0px" viewBox="0 0 64 80" style="enable-background:new 0 0 64 64;" xml:space="preserve"><title>12_BuyIn</title><path d="M60,44l-14,4.3c0-0.1,0-0.2,0-0.3c0-2.2-1.8-4-4-4h-8.8l-11-4H14c0-1.1-0.9-2-2-2H0v22h12c1.1,0,2-0.9,2-2h3.8l16.8,5.9  l0.2,0.1h2.4l25.2-13.1l0.2-0.2c0.7-0.7,1.2-1.6,1.3-2.6l0-0.1C64,45.8,62.2,44,60,44z M6,56H4v-2h2V56z M10,56H8v-2h2V56z   M61.4,49.2L36.8,62h-1.6l-17-6H14V42h7.8l11,4H42c1.1,0,2,0.9,2,2s-0.9,2-2,2H31c-2.2,0-4,1.8-4,4h2c0-1.1,0.9-2,2-2h11  c1.1,0,2.1-0.5,2.9-1.2L60.1,46c1,0.1,1.8,0.9,1.9,1.9C61.9,48.4,61.7,48.8,61.4,49.2z"/><path d="M23.2,38l2.6,0.9l8.4,3.1H43c2.2,0,4.4,2.2,4.6,4.1c0.3-0.1,6.9-2.1,6.9-2.1l1.5-0.5v-2V36c0-14.8-7.8-20.1-12.4-21.5  c-0.9-0.3-2-0.5-2.6-0.5h-8c-0.5,0-1.8,0.2-2.6,0.4C26.1,15.6,18,19.9,18,36v2h2H23.2z M43,29h2v2h-2V29z M36.6,30.9  C36,30.6,33,29.2,33,27c0-1.9,1.3-3.4,3-3.9V21h2v2.1c1.7,0.4,3,2,3,3.9h-2c0-1.1-0.9-2-2-2s-2,0.9-2,2c0,0.6,1.4,1.6,2.4,2.1  C38,29.4,41,30.8,41,33c0,1.9-1.3,3.4-3,3.9V39h-2v-2.1c-1.7-0.4-3-2-3-3.9h2c0,1.1,0.9,2,2,2s2-0.9,2-2  C39,32.4,37.6,31.4,36.6,30.9z M29,29h2v2h-2V29z"/><path d="M31.6,10.4C32,11,32,12.1,33,12h8c0.9,0,1.3-1.4,1.4-1.6l3.5-6.9c0.2-0.5,0-1.1-0.4-1.3l-4-2c-0.3-0.1-0.6-0.1-0.9,0L37,1.9  l-3.6-1.8c-0.3-0.1-0.6-0.1-0.9,0l-4,2c-0.5,0.2-0.7,0.8-0.4,1.3L31.6,10.4z"/><text x="0" y="79" fill="#000000" font-size="5px" font-weight="bold" font-family="'Helvetica Neue', Helvetica, Arial-Unicode, Arial, Sans-serif">Created by Vicons Design</text><text x="0" y="84" fill="#000000" font-size="5px" font-weight="bold" font-family="'Helvetica Neue', Helvetica, Arial-Unicode, Arial, Sans-serif">from the Noun Project</text></svg>