<svg xmlns="http://www.w3.org/2000/svg" data-name="Layer 1" viewBox="0 0 100 125" x="0px" y="0px"><title>Artboard 33</title><path d="M41.85,36.3l10.26-7H63.54a3.81,3.81,0,0,0,3.81-3.81V6.77A3.81,3.81,0,0,0,63.54,3H37a3.81,3.81,0,0,0-3.82,3.81V25.53A3.81,3.81,0,0,0,37,29.35h3.61v6.32A.77.77,0,0,0,41.85,36.3ZM45,14.8a1.65,1.65,0,0,1,2.34,0L49,16.44l4.18-4.18a1.65,1.65,0,0,1,2.34,2.34L50,20.12a1.39,1.39,0,0,1-2,0l-3-3A1.65,1.65,0,0,1,45,14.8ZM95.28,88.7V97H4.72V89.37a5.4,5.4,0,0,1,2-4.18,88.27,88.27,0,0,1,16-10.25.5.5,0,0,0,.28-.45V69.2A12.44,12.44,0,0,1,21.37,65c-.59,0-1.37-.88-2.21-3.85-1.15-4.06.07-4.66,1.1-4.56a10.66,10.66,0,0,1-.45-1.67h0a11.89,11.89,0,0,1,0-5.35,11.64,11.64,0,0,1,3.12-5.47,15,15,0,0,1,2.89-2.39,11.23,11.23,0,0,1,2.81-1.44h0a9.3,9.3,0,0,1,2.55-.49,10.51,10.51,0,0,1,6.41,1.35A8,8,0,0,1,40.69,44s5.18.37,3.43,10.88a10.69,10.69,0,0,1-.45,1.67c1-.1,2.25.5,1.1,4.56-.84,3-1.62,3.8-2.21,3.85A12.18,12.18,0,0,1,41,69.15v5.34a.5.5,0,0,0,.28.45c.73.36,2.82,1.41,5.56,3A95.53,95.53,0,0,1,55.57,73a.54.54,0,0,0,.3-.49V66.94a13.5,13.5,0,0,1-1.68-4.6c-.64-.05-1.49-1-2.4-4.18-1.17-4.15-.07-5,1-5-.57-2.42-2-10.84,4.27-14.67A3.37,3.37,0,0,1,55.86,36s7.14.81,10.61.1,7.18,2,7.77,4.62c0,0,7,0,4.29,12.52,1.09,0,2.29.71,1.08,5-.91,3.22-1.76,4.13-2.4,4.18a13.5,13.5,0,0,1-1.68,4.6v5.61a.54.54,0,0,0,.3.49A95.86,95.86,0,0,1,93.16,84.17,5.87,5.87,0,0,1,95.28,88.7Z"/><text x="0" y="115" fill="#000000" font-size="5px" font-weight="bold" font-family="'Helvetica Neue', Helvetica, Arial-Unicode, Arial, Sans-serif">Created by Gregor Cresnar</text><text x="0" y="120" fill="#000000" font-size="5px" font-weight="bold" font-family="'Helvetica Neue', Helvetica, Arial-Unicode, Arial, Sans-serif">from the Noun Project</text></svg>