<svg xmlns="http://www.w3.org/2000/svg" data-name="Layer 1" viewBox="0 0 100 125" x="0px" y="0px"><title>windy_road_line_dotted</title><path d="M59.72,99H99C74.78,91.39,66.62,88,66.8,84.3c.2-4.2,10.16-7,9.8-11.46-.41-5-13.6-5.76-13.56-9.45,0-1.57,2.46-3.59,12-5.89H70.08q-2.08.43-3.9.87l-.77-.15a41.78,41.78,0,0,1,4.67-.73H65.15c-7.78.93-16.35,1.12-17.36,5.38-.7,3,5.64,4.53,4.77,7.21-1.46,4.48-26.41,7.75-33.19,10.56C4.62,86.76,2.52,91.41,1,99H53a89.06,89.06,0,0,1-8.34-5.41L48.46,92C51,93.79,54.7,96.06,59.72,99Zm5.15-28.6a1.91,1.91,0,0,1,0,.5c-.08,1.47-1.56,2.68-3.71,3.8L60,74.31c2-1,3.4-2.09,3.47-3.41a2,2,0,0,0,0-.51Zm-1.19-1.82-1.26.18a17.1,17.1,0,0,0-3-2.35l.84-.29A21.9,21.9,0,0,1,63.68,68.58Zm.47-10.06.85.16q-1.5.4-2.78.83l-.89-.17C62.21,59,63.16,58.76,64.15,58.52Zm-4.37,1.39.88.17a13.87,13.87,0,0,0-3.06,1.63l-1-.18A16.59,16.59,0,0,1,59.78,59.91Zm-4.37,2.84,1.19,0c-.25.73.68,1.52,2,2.39l-.8.28C56.34,64.42,55.21,63.54,55.42,62.75Zm1.67,12.77,1.39.43c-2.33,1-5,1.92-7.43,3L49,78.28C51.74,77.32,54.62,76.44,57.09,75.52Zm-14,9.69c-.24,1.06.15,2.17,1.49,3.58l-4,1.19c-1.88-2.18-2-3.7-1.68-5.08.42-1.87,2.38-3.35,5-4.62l2.7.83C44.83,82.29,43.48,83.62,43.12,85.21Z"/><text x="0" y="115" fill="#000000" font-size="5px" font-weight="bold" font-family="'Helvetica Neue', Helvetica, Arial-Unicode, Arial, Sans-serif">Created by Davo Sime</text><text x="0" y="120" fill="#000000" font-size="5px" font-weight="bold" font-family="'Helvetica Neue', Helvetica, Arial-Unicode, Arial, Sans-serif">from the Noun Project</text></svg>